<svg width="133" height="29" viewBox="0 0 133 29" fill="none" xmlns="http://www.w3.org/2000/svg">
<path d="M45.2979 21H42.6172V8.15039H49.9824V10.3828H45.2979V13.6963H49.6572V15.9199H45.2979V21ZM54.9658 21H52.2852V7.32422H54.9658V21ZM61.8564 12.8965C61.2881 12.8965 60.8428 13.0781 60.5205 13.4414C60.1982 13.7988 60.0137 14.3086 59.9668 14.9707H63.7285C63.7168 14.3086 63.5439 13.7988 63.21 13.4414C62.876 13.0781 62.4248 12.8965 61.8564 12.8965ZM62.2344 21.1758C60.6523 21.1758 59.416 20.7393 58.5254 19.8662C57.6348 18.9932 57.1895 17.7568 57.1895 16.1572C57.1895 14.5107 57.5996 13.2393 58.4199 12.3428C59.2461 11.4404 60.3857 10.9893 61.8389 10.9893C63.2275 10.9893 64.3086 11.3848 65.082 12.1758C65.8555 12.9668 66.2422 14.0596 66.2422 15.4541V16.7549H59.9053C59.9346 17.5166 60.1602 18.1113 60.582 18.5391C61.0039 18.9668 61.5957 19.1807 62.3574 19.1807C62.9492 19.1807 63.5088 19.1191 64.0361 18.9961C64.5635 18.873 65.1143 18.6768 65.6885 18.4072V20.4814C65.2197 20.7158 64.7188 20.8887 64.1855 21C63.6523 21.1172 63.002 21.1758 62.2344 21.1758ZM70.4346 15.9814L67.2705 11.1738H70.3115L72.2188 14.3027L74.1436 11.1738H77.1846L73.9854 15.9814L77.334 21H74.2842L72.2188 17.6338L70.1445 21H67.1035L70.4346 15.9814ZM78.7139 8.63379C78.7139 7.76074 79.2002 7.32422 80.1729 7.32422C81.1455 7.32422 81.6318 7.76074 81.6318 8.63379C81.6318 9.0498 81.5088 9.375 81.2627 9.60938C81.0225 9.83789 80.6592 9.95215 80.1729 9.95215C79.2002 9.95215 78.7139 9.5127 78.7139 8.63379ZM81.5088 21H78.8281V11.1738H81.5088V21ZM87.2217 21H84.541V8.15039H91.9062V10.3828H87.2217V13.6963H91.5811V15.9199H87.2217V21ZM96.3447 16.0693C96.3447 17.042 96.5029 17.7773 96.8193 18.2754C97.1416 18.7734 97.6631 19.0225 98.3838 19.0225C99.0986 19.0225 99.6113 18.7764 99.9219 18.2842C100.238 17.7861 100.396 17.0479 100.396 16.0693C100.396 15.0967 100.238 14.3672 99.9219 13.8809C99.6055 13.3945 99.0869 13.1514 98.3662 13.1514C97.6514 13.1514 97.1357 13.3945 96.8193 13.8809C96.5029 14.3613 96.3447 15.0908 96.3447 16.0693ZM103.139 16.0693C103.139 17.6689 102.717 18.9199 101.873 19.8223C101.029 20.7246 99.8545 21.1758 98.3486 21.1758C97.4053 21.1758 96.5732 20.9707 95.8525 20.5605C95.1318 20.1445 94.5781 19.5498 94.1914 18.7764C93.8047 18.0029 93.6113 17.1006 93.6113 16.0693C93.6113 14.4639 94.0303 13.2158 94.8682 12.3252C95.7061 11.4346 96.8838 10.9893 98.4014 10.9893C99.3447 10.9893 100.177 11.1943 100.897 11.6045C101.618 12.0146 102.172 12.6035 102.559 13.3711C102.945 14.1387 103.139 15.0381 103.139 16.0693ZM110.838 10.9893C111.201 10.9893 111.503 11.0156 111.743 11.0684L111.541 13.582C111.324 13.5234 111.061 13.4941 110.75 13.4941C109.895 13.4941 109.227 13.7139 108.746 14.1533C108.271 14.5928 108.034 15.208 108.034 15.999V21H105.354V11.1738H107.384L107.779 12.8262H107.911C108.216 12.2754 108.626 11.833 109.142 11.499C109.663 11.1592 110.229 10.9893 110.838 10.9893ZM117.518 21.1758C114.459 21.1758 112.93 19.4971 112.93 16.1396C112.93 14.4697 113.346 13.1953 114.178 12.3164C115.01 11.4316 116.202 10.9893 117.755 10.9893C118.892 10.9893 119.911 11.2119 120.813 11.6572L120.022 13.7314C119.601 13.5615 119.208 13.4238 118.845 13.3184C118.481 13.207 118.118 13.1514 117.755 13.1514C116.36 13.1514 115.663 14.1416 115.663 16.1221C115.663 18.0439 116.36 19.0049 117.755 19.0049C118.271 19.0049 118.748 18.9375 119.188 18.8027C119.627 18.6621 120.066 18.4453 120.506 18.1523V20.4463C120.072 20.7217 119.633 20.9121 119.188 21.0176C118.748 21.123 118.191 21.1758 117.518 21.1758ZM126.86 12.8965C126.292 12.8965 125.847 13.0781 125.524 13.4414C125.202 13.7988 125.018 14.3086 124.971 14.9707H128.732C128.721 14.3086 128.548 13.7988 128.214 13.4414C127.88 13.0781 127.429 12.8965 126.86 12.8965ZM127.238 21.1758C125.656 21.1758 124.42 20.7393 123.529 19.8662C122.639 18.9932 122.193 17.7568 122.193 16.1572C122.193 14.5107 122.604 13.2393 123.424 12.3428C124.25 11.4404 125.39 10.9893 126.843 10.9893C128.231 10.9893 129.312 11.3848 130.086 12.1758C130.859 12.9668 131.246 14.0596 131.246 15.4541V16.7549H124.909C124.938 17.5166 125.164 18.1113 125.586 18.5391C126.008 18.9668 126.6 19.1807 127.361 19.1807C127.953 19.1807 128.513 19.1191 129.04 18.9961C129.567 18.873 130.118 18.6768 130.692 18.4072V20.4814C130.224 20.7158 129.723 20.8887 129.189 21C128.656 21.1172 128.006 21.1758 127.238 21.1758Z" fill="white"/>
<circle cx="17.5" cy="15.5" r="12" stroke="white" stroke-width="3"/>
<circle cx="13.5" cy="13.5" r="13" stroke="white"/>
</svg>
