<svg width="146" height="19" viewBox="0 0 146 19" fill="none" xmlns="http://www.w3.org/2000/svg">
<path d="M0.764 18H4.5965V11.7315C4.5965 11.2065 4.7575 10.7795 5.0795 10.4505C5.4085 10.1215 5.839 9.957 6.371 9.957C6.91 9.957 7.3265 10.132 7.6205 10.482C7.9215 10.825 8.072 11.28 8.072 11.847V18H11.9045V11.637C11.9045 11.147 12.0655 10.7445 12.3875 10.4295C12.7095 10.1145 13.1365 9.957 13.6685 9.957C14.1935 9.957 14.61 10.1285 14.918 10.4715C15.233 10.8145 15.3905 11.2835 15.3905 11.8785V18H19.223V10.839C19.223 10.048 19.048 9.3585 18.698 8.7705C18.348 8.1825 17.8685 7.7275 17.2595 7.4055C16.6575 7.0765 15.9645 6.912 15.1805 6.912C14.4525 6.912 13.791 7.073 13.196 7.395C12.608 7.717 12.034 8.2105 11.474 8.8755C11.173 8.2805 10.6865 7.8045 10.0145 7.4475C9.3495 7.0905 8.6145 6.912 7.8095 6.912C7.2425 6.912 6.707 7.024 6.203 7.248C5.706 7.472 5.1705 7.836 4.5965 8.34V7.248H0.764V18ZM26.8163 18.336C28.1253 18.336 29.2908 17.853 30.3128 16.887V18H34.1453V7.248H30.3128V8.235C29.8858 7.822 29.3678 7.5 28.7588 7.269C28.1498 7.031 27.5023 6.912 26.8163 6.912C25.7803 6.912 24.8598 7.164 24.0548 7.668C23.2568 8.165 22.6303 8.844 22.1753 9.705C21.7203 10.566 21.4928 11.532 21.4928 12.603C21.4928 13.709 21.7308 14.696 22.2068 15.564C22.6828 16.425 23.3233 17.104 24.1283 17.601C24.9333 18.091 25.8293 18.336 26.8163 18.336ZM27.9713 15.0915C27.2713 15.0915 26.6903 14.8605 26.2283 14.3985C25.7663 13.9295 25.5353 13.338 25.5353 12.624C25.5353 11.917 25.7663 11.329 26.2283 10.86C26.6903 10.391 27.2713 10.1565 27.9713 10.1565C28.6783 10.1565 29.2558 10.391 29.7038 10.86C30.1588 11.322 30.3863 11.91 30.3863 12.624C30.3863 13.338 30.1588 13.9295 29.7038 14.3985C29.2558 14.8605 28.6783 15.0915 27.9713 15.0915ZM37.4631 18H41.2956V11.868C41.2956 11.287 41.4776 10.8145 41.8416 10.4505C42.2126 10.0795 42.7061 9.894 43.3221 9.894C43.9311 9.894 44.4141 10.083 44.7711 10.461C45.1281 10.832 45.3066 11.3395 45.3066 11.9835V18H49.1391V11.1645C49.1391 10.3385 48.9536 9.607 48.5826 8.97C48.2186 8.326 47.7146 7.822 47.0706 7.458C46.4336 7.094 45.7056 6.912 44.8866 6.912C44.2006 6.912 43.5426 7.0415 42.9126 7.3005C42.2896 7.5595 41.7506 7.906 41.2956 8.34V7.248H37.4631V18ZM52.6854 18H56.7279V10.8705L63.0279 18H68.6034L60.4659 8.9175L67.5114 0.674999H62.5764L56.7279 7.647V0.674999H52.6854V18ZM70.2761 18H74.3186V11.7525H74.7071L79.5161 18H84.6506L79.0226 11.259C80.1706 10.86 81.0561 10.209 81.6791 9.306C82.3021 8.396 82.6136 7.3075 82.6136 6.0405C82.6136 4.9065 82.3686 3.9405 81.8786 3.1425C81.3886 2.3375 80.6991 1.725 79.8101 1.305C78.9281 0.884999 77.8851 0.674999 76.6811 0.674999H70.2761V18ZM74.3186 8.3925V3.8985H75.3791C76.3381 3.8985 77.0731 4.0945 77.5841 4.4865C78.0951 4.8715 78.3506 5.428 78.3506 6.156C78.3506 6.877 78.0951 7.43 77.5841 7.815C77.0801 8.2 76.3451 8.3925 75.3791 8.3925H74.3186ZM83.9873 18H88.3448L89.5943 14.619H96.1673L97.4063 18H101.764L94.7603 0.674999H91.0013L83.9873 18ZM90.9698 11.07L92.8808 6.1665L94.7813 11.07H90.9698ZM111.487 18.336C112.572 18.336 113.594 18.1855 114.553 17.8845C115.519 17.5765 116.32 17.1985 116.957 16.7505L115.235 13.3065C114.808 13.6285 114.283 13.884 113.66 14.073C113.037 14.262 112.393 14.3565 111.728 14.3565C110.699 14.3565 109.772 14.136 108.946 13.695C108.12 13.254 107.462 12.6555 106.972 11.8995C106.489 11.1435 106.247 10.293 106.247 9.348C106.247 8.396 106.489 7.5455 106.972 6.7965C107.462 6.0405 108.12 5.442 108.946 5.001C109.772 4.56 110.699 4.3395 111.728 4.3395C112.393 4.3395 113.037 4.434 113.66 4.623C114.283 4.805 114.808 5.0605 115.235 5.3895L116.957 1.9455C116.285 1.4765 115.466 1.095 114.5 0.800999C113.534 0.506999 112.523 0.359999 111.466 0.359999C110.164 0.359999 108.932 0.594499 107.77 1.0635C106.615 1.5255 105.593 2.1695 104.704 2.9955C103.822 3.8145 103.125 4.77 102.614 5.862C102.11 6.947 101.858 8.1125 101.858 9.3585C101.858 10.5975 102.11 11.7595 102.614 12.8445C103.118 13.9295 103.815 14.885 104.704 15.711C105.593 16.53 106.618 17.174 107.78 17.643C108.942 18.105 110.178 18.336 111.487 18.336ZM119.172 18H123.215V11.091H128.612V18H132.665V0.674999H128.612V7.542H123.215V0.674999H119.172V18ZM137.845 18H141.898V4.2345H145.962V0.674999H133.782V4.2345H137.845V18Z" fill="#3C227C"/>
</svg>
