<svg width="488" height="83" viewBox="0 0 488 83" fill="none" xmlns="http://www.w3.org/2000/svg">
<circle cx="14.5" cy="29" r="14" fill="#F73C6B"/>
<path d="M22.2076 31H26.9236V1.3H18.3736V5.926H22.2076V31Z" fill="#373F41"/>
<line x1="78.5" y1="24.5" x2="181.5" y2="24.5" stroke="#CB973A"/>
<g opacity="0.2">
<circle cx="468.5" cy="29" r="14" fill="#F73C6B"/>
<path d="M477.463 31.576C479.491 31.576 481.261 31.186 482.773 30.406C484.285 29.614 485.461 28.534 486.301 27.166C487.141 25.798 487.561 24.25 487.561 22.522C487.561 20.818 487.147 19.348 486.319 18.112C485.491 16.876 484.417 15.958 483.097 15.358C484.225 14.746 485.113 13.888 485.761 12.784C486.409 11.668 486.733 10.432 486.733 9.076C486.733 7.492 486.337 6.076 485.545 4.828C484.765 3.568 483.691 2.578 482.323 1.858C480.967 1.126 479.425 0.759999 477.697 0.759999C476.185 0.759999 474.793 1.054 473.521 1.642C472.249 2.23 471.187 3.046 470.335 4.09C469.483 5.122 468.925 6.322 468.661 7.69L472.459 9.346C472.543 8.446 472.825 7.642 473.305 6.934C473.785 6.214 474.403 5.65 475.159 5.242C475.915 4.822 476.737 4.612 477.625 4.612C478.513 4.612 479.317 4.816 480.037 5.224C480.757 5.62 481.327 6.166 481.747 6.862C482.179 7.546 482.395 8.314 482.395 9.166C482.395 10.03 482.173 10.834 481.729 11.578C481.297 12.31 480.715 12.904 479.983 13.36C479.251 13.816 478.429 14.044 477.517 14.044H476.293V17.266C476.617 17.146 477.031 17.086 477.535 17.086C478.507 17.086 479.389 17.326 480.181 17.806C480.973 18.286 481.603 18.94 482.071 19.768C482.551 20.596 482.791 21.526 482.791 22.558C482.791 24.022 482.305 25.204 481.333 26.104C480.373 26.992 479.089 27.436 477.481 27.436C475.765 27.436 474.367 26.944 473.287 25.96C472.207 24.964 471.631 23.68 471.559 22.108L467.131 24.07C467.455 25.57 468.091 26.884 469.039 28.012C469.999 29.14 471.199 30.016 472.639 30.64C474.079 31.264 475.687 31.576 477.463 31.576Z" fill="#373F41"/>
</g>
<circle cx="241.5" cy="29" r="14" fill="#F73C6B"/>
<path d="M239.505 31H261.591V26.752H248.307C250.707 24.952 252.723 23.326 254.355 21.874C255.987 20.41 257.295 19.054 258.279 17.806C259.263 16.546 259.971 15.34 260.403 14.188C260.835 13.024 261.051 11.842 261.051 10.642C261.051 8.746 260.589 7.054 259.665 5.566C258.753 4.066 257.505 2.89 255.921 2.038C254.337 1.174 252.537 0.741998 250.521 0.741998C248.697 0.741998 247.041 1.114 245.553 1.858C244.077 2.602 242.841 3.652 241.845 5.008C240.849 6.352 240.165 7.924 239.793 9.724L243.825 11.488C244.245 9.484 245.031 7.906 246.183 6.754C247.335 5.59 248.691 5.008 250.251 5.008C251.331 5.008 252.297 5.266 253.149 5.782C254.013 6.298 254.697 6.994 255.201 7.87C255.705 8.734 255.957 9.7 255.957 10.768C255.957 11.74 255.681 12.772 255.129 13.864C254.577 14.944 253.665 16.174 252.393 17.554C251.133 18.922 249.447 20.512 247.335 22.324C245.235 24.124 242.625 26.23 239.505 28.642V31Z" fill="#373F41"/>
<line x1="305.5" y1="24.5" x2="408.5" y2="24.5" stroke="#CB973A"/>
<path d="M243.5 70L251.727 79.75H235.273L243.5 70Z" fill="#F73C6B"/>
</svg>
