<svg width="31" height="30" viewBox="0 0 31 30" fill="none" xmlns="http://www.w3.org/2000/svg">
<path d="M15.8125 0C12.8458 0 9.94569 0.879735 7.47895 2.52796C5.01221 4.17618 3.08963 6.51886 1.95431 9.25975C0.818999 12.0006 0.521949 15.0166 1.10073 17.9263C1.67951 20.8361 3.10812 23.5088 5.2059 25.6066C7.30369 27.7044 9.97644 29.133 12.8861 29.7118C15.7959 30.2905 18.8119 29.9935 21.5528 28.8582C24.2936 27.7229 26.6363 25.8003 28.2845 23.3335C29.9328 20.8668 30.8125 17.9667 30.8125 15C30.8125 11.0217 29.2321 7.20644 26.4191 4.3934C23.6061 1.58035 19.7908 0 15.8125 0ZM13.6696 20.9893L8.3125 15.6321L10.0161 13.9286L13.6696 17.5821L21.6089 9.64285L23.3189 11.3421L13.6696 20.9893Z" fill="#2ED573"/>
</svg>
